<mxfile host="app.diagrams.net" agent="Mozilla/5.0 (Windows NT 10.0; Win64; x64) AppleWebKit/537.36 (KHTML, like Gecko) Chrome/140.0.0.0 Safari/537.36" version="28.2.0" pages="3">
  <diagram name="PÃ¡gina-1" id="H1Rm0cVtSJIeZtft6TXI">
    <mxGraphModel dx="2979" dy="553" grid="1" gridSize="10" guides="1" tooltips="1" connect="1" arrows="1" fold="1" page="1" pageScale="1" pageWidth="827" pageHeight="1169" math="0" shadow="0">
      <root>
        <mxCell id="0" />
        <mxCell id="1" parent="0" />
        <mxCell id="sqXsPWcuk-lvkAGoKO53-19" value="Categoria" style="swimlane;childLayout=stackLayout;horizontal=1;startSize=50;horizontalStack=0;rounded=1;fontSize=14;fontStyle=0;strokeWidth=2;resizeParent=0;resizeLast=1;shadow=0;dashed=0;align=center;arcSize=4;whiteSpace=wrap;html=1;" vertex="1" parent="1">
          <mxGeometry x="-850" y="62.5" width="150" height="90" as="geometry" />
        </mxCell>
        <mxCell id="sqXsPWcuk-lvkAGoKO53-20" value="INT IDcategoria (PK)&lt;br&gt;CHAR nome&amp;nbsp;" style="align=left;strokeColor=none;fillColor=none;spacingLeft=4;spacingRight=4;fontSize=12;verticalAlign=top;resizable=0;rotatable=0;part=1;html=1;whiteSpace=wrap;" vertex="1" parent="sqXsPWcuk-lvkAGoKO53-19">
          <mxGeometry y="50" width="150" height="40" as="geometry" />
        </mxCell>
        <mxCell id="sqXsPWcuk-lvkAGoKO53-23" style="edgeStyle=orthogonalEdgeStyle;rounded=0;orthogonalLoop=1;jettySize=auto;html=1;exitX=0.5;exitY=1;exitDx=0;exitDy=0;" edge="1" parent="sqXsPWcuk-lvkAGoKO53-19" source="sqXsPWcuk-lvkAGoKO53-20" target="sqXsPWcuk-lvkAGoKO53-20">
          <mxGeometry relative="1" as="geometry" />
        </mxCell>
        <mxCell id="sqXsPWcuk-lvkAGoKO53-21" value="Livro" style="swimlane;childLayout=stackLayout;horizontal=1;startSize=50;horizontalStack=0;rounded=1;fontSize=14;fontStyle=0;strokeWidth=2;resizeParent=0;resizeLast=1;shadow=0;dashed=0;align=center;arcSize=4;whiteSpace=wrap;html=1;" vertex="1" parent="1">
          <mxGeometry x="-590" y="30" width="160" height="150" as="geometry" />
        </mxCell>
        <mxCell id="sqXsPWcuk-lvkAGoKO53-22" value="INT IDlivro (PK)&lt;div&gt;INT IDcategoria (FK)&lt;/div&gt;&lt;div&gt;DATE data_lancamento&lt;/div&gt;&lt;div&gt;INT numero_paginas&lt;/div&gt;&lt;div&gt;VARCHAR resumo&lt;/div&gt;&lt;div&gt;INT isbn&lt;/div&gt;" style="align=left;strokeColor=none;fillColor=none;spacingLeft=4;spacingRight=4;fontSize=12;verticalAlign=top;resizable=0;rotatable=0;part=1;html=1;whiteSpace=wrap;" vertex="1" parent="sqXsPWcuk-lvkAGoKO53-21">
          <mxGeometry y="50" width="160" height="100" as="geometry" />
        </mxCell>
        <mxCell id="sqXsPWcuk-lvkAGoKO53-30" value="LivrosAutor" style="swimlane;childLayout=stackLayout;horizontal=1;startSize=50;horizontalStack=0;rounded=1;fontSize=14;fontStyle=0;strokeWidth=2;resizeParent=0;resizeLast=1;shadow=0;dashed=0;align=center;arcSize=4;whiteSpace=wrap;html=1;" vertex="1" parent="1">
          <mxGeometry x="-350" y="60" width="160" height="95" as="geometry" />
        </mxCell>
        <mxCell id="sqXsPWcuk-lvkAGoKO53-31" value="INT IDautor FK PK&amp;nbsp;&lt;div&gt;INT IDlivro FK PK&amp;nbsp;&lt;/div&gt;" style="align=left;strokeColor=none;fillColor=none;spacingLeft=4;spacingRight=4;fontSize=12;verticalAlign=top;resizable=0;rotatable=0;part=1;html=1;whiteSpace=wrap;" vertex="1" parent="sqXsPWcuk-lvkAGoKO53-30">
          <mxGeometry y="50" width="160" height="45" as="geometry" />
        </mxCell>
        <mxCell id="sqXsPWcuk-lvkAGoKO53-32" value="Autor" style="swimlane;childLayout=stackLayout;horizontal=1;startSize=50;horizontalStack=0;rounded=1;fontSize=14;fontStyle=0;strokeWidth=2;resizeParent=0;resizeLast=1;shadow=0;dashed=0;align=center;arcSize=4;whiteSpace=wrap;html=1;" vertex="1" parent="1">
          <mxGeometry x="-110" y="60" width="160" height="95" as="geometry" />
        </mxCell>
        <mxCell id="sqXsPWcuk-lvkAGoKO53-33" value="INT IDautor (PK)&lt;div&gt;CHAR nome&lt;/div&gt;" style="align=left;strokeColor=none;fillColor=none;spacingLeft=4;spacingRight=4;fontSize=12;verticalAlign=top;resizable=0;rotatable=0;part=1;html=1;whiteSpace=wrap;" vertex="1" parent="sqXsPWcuk-lvkAGoKO53-32">
          <mxGeometry y="50" width="160" height="45" as="geometry" />
        </mxCell>
        <mxCell id="sqXsPWcuk-lvkAGoKO53-37" value="VendaLivros" style="swimlane;childLayout=stackLayout;horizontal=1;startSize=50;horizontalStack=0;rounded=1;fontSize=14;fontStyle=0;strokeWidth=2;resizeParent=0;resizeLast=1;shadow=0;dashed=0;align=center;arcSize=4;whiteSpace=wrap;html=1;" vertex="1" parent="1">
          <mxGeometry x="-610" y="220" width="160" height="110" as="geometry" />
        </mxCell>
        <mxCell id="sqXsPWcuk-lvkAGoKO53-38" value="INT IDlivro FK PK&amp;nbsp;&lt;div&gt;INT IDvenda FK PK&amp;nbsp;&lt;/div&gt;&lt;div&gt;INT quantidade&amp;nbsp;&lt;/div&gt;" style="align=left;strokeColor=none;fillColor=none;spacingLeft=4;spacingRight=4;fontSize=12;verticalAlign=top;resizable=0;rotatable=0;part=1;html=1;whiteSpace=wrap;" vertex="1" parent="sqXsPWcuk-lvkAGoKO53-37">
          <mxGeometry y="50" width="160" height="60" as="geometry" />
        </mxCell>
        <mxCell id="sqXsPWcuk-lvkAGoKO53-39" value="Venda" style="swimlane;childLayout=stackLayout;horizontal=1;startSize=50;horizontalStack=0;rounded=1;fontSize=14;fontStyle=0;strokeWidth=2;resizeParent=0;resizeLast=1;shadow=0;dashed=0;align=center;arcSize=4;whiteSpace=wrap;html=1;" vertex="1" parent="1">
          <mxGeometry x="-610" y="380" width="160" height="120" as="geometry" />
        </mxCell>
        <mxCell id="sqXsPWcuk-lvkAGoKO53-40" value="INT IDvenda (PK)&lt;div&gt;INT IDcliente FK PK&amp;nbsp;&lt;br&gt;&lt;div&gt;TINYINT frete&lt;/div&gt;&lt;div&gt;TINYINT valor&lt;/div&gt;&lt;/div&gt;" style="align=left;strokeColor=none;fillColor=none;spacingLeft=4;spacingRight=4;fontSize=12;verticalAlign=top;resizable=0;rotatable=0;part=1;html=1;whiteSpace=wrap;" vertex="1" parent="sqXsPWcuk-lvkAGoKO53-39">
          <mxGeometry y="50" width="160" height="70" as="geometry" />
        </mxCell>
        <mxCell id="sqXsPWcuk-lvkAGoKO53-47" value="Cliente" style="swimlane;childLayout=stackLayout;horizontal=1;startSize=50;horizontalStack=0;rounded=1;fontSize=14;fontStyle=0;strokeWidth=2;resizeParent=0;resizeLast=1;shadow=0;dashed=0;align=center;arcSize=4;whiteSpace=wrap;html=1;" vertex="1" parent="1">
          <mxGeometry x="-370" y="395" width="160" height="90" as="geometry">
            <mxRectangle x="-270" y="385" width="80" height="50" as="alternateBounds" />
          </mxGeometry>
        </mxCell>
        <mxCell id="sqXsPWcuk-lvkAGoKO53-48" value="INT IDcliente(PK)&lt;div&gt;CHAR nome&lt;/div&gt;" style="align=left;strokeColor=none;fillColor=none;spacingLeft=4;spacingRight=4;fontSize=12;verticalAlign=top;resizable=0;rotatable=0;part=1;html=1;whiteSpace=wrap;" vertex="1" parent="sqXsPWcuk-lvkAGoKO53-47">
          <mxGeometry y="50" width="160" height="40" as="geometry" />
        </mxCell>
        <mxCell id="sqXsPWcuk-lvkAGoKO53-52" value="Entrega" style="swimlane;childLayout=stackLayout;horizontal=1;startSize=50;horizontalStack=0;rounded=1;fontSize=14;fontStyle=0;strokeWidth=2;resizeParent=0;resizeLast=1;shadow=0;dashed=0;align=center;arcSize=4;whiteSpace=wrap;html=1;" vertex="1" parent="1">
          <mxGeometry x="-120" y="380" width="160" height="120" as="geometry" />
        </mxCell>
        <mxCell id="sqXsPWcuk-lvkAGoKO53-53" value="&lt;div&gt;INT IDentrega(PK)&lt;/div&gt;INT IDcliente FK PK&amp;nbsp;&lt;div&gt;INT IDendereco&lt;/div&gt;" style="align=left;strokeColor=none;fillColor=none;spacingLeft=4;spacingRight=4;fontSize=12;verticalAlign=top;resizable=0;rotatable=0;part=1;html=1;whiteSpace=wrap;" vertex="1" parent="sqXsPWcuk-lvkAGoKO53-52">
          <mxGeometry y="50" width="160" height="70" as="geometry" />
        </mxCell>
        <mxCell id="sqXsPWcuk-lvkAGoKO53-54" value="Endereco" style="swimlane;childLayout=stackLayout;horizontal=1;startSize=50;horizontalStack=0;rounded=1;fontSize=14;fontStyle=0;strokeWidth=2;resizeParent=0;resizeLast=1;shadow=0;dashed=0;align=center;arcSize=4;whiteSpace=wrap;html=1;" vertex="1" parent="1">
          <mxGeometry x="-120" y="580" width="160" height="135" as="geometry" />
        </mxCell>
        <mxCell id="sqXsPWcuk-lvkAGoKO53-55" value="INT IDendereco (PK)&lt;div&gt;INT IDcidade FK&amp;nbsp;&lt;br&gt;&lt;div&gt;VARCHAR logadouro&lt;/div&gt;&lt;div&gt;INT numero&lt;/div&gt;&lt;div&gt;INT cep&lt;/div&gt;&lt;/div&gt;" style="align=left;strokeColor=none;fillColor=none;spacingLeft=4;spacingRight=4;fontSize=12;verticalAlign=top;resizable=0;rotatable=0;part=1;html=1;whiteSpace=wrap;" vertex="1" parent="sqXsPWcuk-lvkAGoKO53-54">
          <mxGeometry y="50" width="160" height="85" as="geometry" />
        </mxCell>
        <mxCell id="sqXsPWcuk-lvkAGoKO53-60" value="Cidade" style="swimlane;childLayout=stackLayout;horizontal=1;startSize=50;horizontalStack=0;rounded=1;fontSize=14;fontStyle=0;strokeWidth=2;resizeParent=0;resizeLast=1;shadow=0;dashed=0;align=center;arcSize=4;whiteSpace=wrap;html=1;" vertex="1" parent="1">
          <mxGeometry x="-350" y="597.5" width="160" height="100" as="geometry" />
        </mxCell>
        <mxCell id="sqXsPWcuk-lvkAGoKO53-61" value="INT IDcidade(PK)&lt;div&gt;INT IDestado FK PK&amp;nbsp;&lt;br&gt;&lt;div&gt;CHAR nome&lt;/div&gt;&lt;/div&gt;" style="align=left;strokeColor=none;fillColor=none;spacingLeft=4;spacingRight=4;fontSize=12;verticalAlign=top;resizable=0;rotatable=0;part=1;html=1;whiteSpace=wrap;" vertex="1" parent="sqXsPWcuk-lvkAGoKO53-60">
          <mxGeometry y="50" width="160" height="50" as="geometry" />
        </mxCell>
        <mxCell id="sqXsPWcuk-lvkAGoKO53-65" value="Estado" style="swimlane;childLayout=stackLayout;horizontal=1;startSize=50;horizontalStack=0;rounded=1;fontSize=14;fontStyle=0;strokeWidth=2;resizeParent=0;resizeLast=1;shadow=0;dashed=0;align=center;arcSize=4;whiteSpace=wrap;html=1;" vertex="1" parent="1">
          <mxGeometry x="-590" y="602.5" width="160" height="90" as="geometry" />
        </mxCell>
        <mxCell id="sqXsPWcuk-lvkAGoKO53-66" value="INT IDestado(PK)&lt;div&gt;CHAR nome&lt;/div&gt;" style="align=left;strokeColor=none;fillColor=none;spacingLeft=4;spacingRight=4;fontSize=12;verticalAlign=top;resizable=0;rotatable=0;part=1;html=1;whiteSpace=wrap;" vertex="1" parent="sqXsPWcuk-lvkAGoKO53-65">
          <mxGeometry y="50" width="160" height="40" as="geometry" />
        </mxCell>
        <mxCell id="sqXsPWcuk-lvkAGoKO53-68" value="" style="endArrow=ERzeroToMany;html=1;rounded=0;exitX=1;exitY=0.5;exitDx=0;exitDy=0;startArrow=ERmandOne;startFill=0;endFill=0;" edge="1" parent="1" source="sqXsPWcuk-lvkAGoKO53-19">
          <mxGeometry relative="1" as="geometry">
            <mxPoint x="-730" y="150" as="sourcePoint" />
            <mxPoint x="-590" y="110" as="targetPoint" />
          </mxGeometry>
        </mxCell>
        <mxCell id="sqXsPWcuk-lvkAGoKO53-69" value="" style="endArrow=ERmany;html=1;rounded=0;exitX=0.999;exitY=0.315;exitDx=0;exitDy=0;exitPerimeter=0;startArrow=ERmandOne;startFill=0;endFill=0;" edge="1" parent="1" source="sqXsPWcuk-lvkAGoKO53-22">
          <mxGeometry relative="1" as="geometry">
            <mxPoint x="-430" y="110" as="sourcePoint" />
            <mxPoint x="-350" y="110" as="targetPoint" />
          </mxGeometry>
        </mxCell>
        <mxCell id="sqXsPWcuk-lvkAGoKO53-70" value="" style="endArrow=ERmandOne;html=1;rounded=0;entryX=0;entryY=0;entryDx=0;entryDy=0;startArrow=ERzeroToMany;startFill=0;endFill=0;" edge="1" parent="1" target="sqXsPWcuk-lvkAGoKO53-33">
          <mxGeometry relative="1" as="geometry">
            <mxPoint x="-190" y="110" as="sourcePoint" />
            <mxPoint x="-30" y="110" as="targetPoint" />
          </mxGeometry>
        </mxCell>
        <mxCell id="sqXsPWcuk-lvkAGoKO53-71" value="" style="endArrow=ERmany;html=1;rounded=0;endFill=0;startArrow=ERmandOne;startFill=0;" edge="1" parent="1">
          <mxGeometry relative="1" as="geometry">
            <mxPoint x="-520" y="180" as="sourcePoint" />
            <mxPoint x="-520" y="220" as="targetPoint" />
          </mxGeometry>
        </mxCell>
        <mxCell id="sqXsPWcuk-lvkAGoKO53-72" value="" style="endArrow=ERmandOne;html=1;rounded=0;exitX=0.5;exitY=1;exitDx=0;exitDy=0;entryX=0.5;entryY=0;entryDx=0;entryDy=0;startArrow=ERmany;startFill=0;endFill=0;" edge="1" parent="1" source="sqXsPWcuk-lvkAGoKO53-38" target="sqXsPWcuk-lvkAGoKO53-39">
          <mxGeometry relative="1" as="geometry">
            <mxPoint x="-550" y="340" as="sourcePoint" />
            <mxPoint x="-390" y="340" as="targetPoint" />
          </mxGeometry>
        </mxCell>
        <mxCell id="sqXsPWcuk-lvkAGoKO53-73" value="" style="endArrow=ERmandOne;html=1;rounded=0;entryX=0;entryY=0;entryDx=0;entryDy=0;startArrow=ERzeroToMany;startFill=0;endFill=0;" edge="1" parent="1" target="sqXsPWcuk-lvkAGoKO53-48">
          <mxGeometry relative="1" as="geometry">
            <mxPoint x="-450" y="440" as="sourcePoint" />
            <mxPoint x="-290" y="440" as="targetPoint" />
          </mxGeometry>
        </mxCell>
        <mxCell id="sqXsPWcuk-lvkAGoKO53-75" value="" style="endArrow=ERmany;html=1;rounded=0;exitX=1;exitY=0;exitDx=0;exitDy=0;entryX=0;entryY=0.25;entryDx=0;entryDy=0;startArrow=ERmandOne;startFill=0;endFill=0;" edge="1" parent="1" source="sqXsPWcuk-lvkAGoKO53-48" target="sqXsPWcuk-lvkAGoKO53-53">
          <mxGeometry relative="1" as="geometry">
            <mxPoint x="-310" y="520" as="sourcePoint" />
            <mxPoint x="-310" y="540" as="targetPoint" />
          </mxGeometry>
        </mxCell>
        <mxCell id="sqXsPWcuk-lvkAGoKO53-76" value="" style="endArrow=ERmandOne;html=1;rounded=0;exitX=0.5;exitY=1;exitDx=0;exitDy=0;entryX=0.5;entryY=0;entryDx=0;entryDy=0;startArrow=ERmany;startFill=0;endFill=0;" edge="1" parent="1" source="sqXsPWcuk-lvkAGoKO53-53" target="sqXsPWcuk-lvkAGoKO53-54">
          <mxGeometry relative="1" as="geometry">
            <mxPoint x="-310" y="700" as="sourcePoint" />
            <mxPoint x="-150" y="700" as="targetPoint" />
          </mxGeometry>
        </mxCell>
        <mxCell id="sqXsPWcuk-lvkAGoKO53-77" value="" style="endArrow=ERmany;html=1;rounded=0;exitX=1;exitY=0;exitDx=0;exitDy=0;entryX=0;entryY=0.25;entryDx=0;entryDy=0;startArrow=ERmandOne;startFill=0;endFill=0;" edge="1" parent="1" source="sqXsPWcuk-lvkAGoKO53-61" target="sqXsPWcuk-lvkAGoKO53-55">
          <mxGeometry relative="1" as="geometry">
            <mxPoint x="-460" y="890" as="sourcePoint" />
            <mxPoint x="-300" y="890" as="targetPoint" />
          </mxGeometry>
        </mxCell>
        <mxCell id="sqXsPWcuk-lvkAGoKO53-78" value="" style="endArrow=ERmany;html=1;rounded=0;exitX=1;exitY=0;exitDx=0;exitDy=0;entryX=0;entryY=0;entryDx=0;entryDy=0;endFill=0;startArrow=ERmandOne;startFill=0;" edge="1" parent="1" source="sqXsPWcuk-lvkAGoKO53-66" target="sqXsPWcuk-lvkAGoKO53-61">
          <mxGeometry relative="1" as="geometry">
            <mxPoint x="-730" y="820" as="sourcePoint" />
            <mxPoint x="-570" y="820" as="targetPoint" />
          </mxGeometry>
        </mxCell>
      </root>
    </mxGraphModel>
  </diagram>
  <diagram id="GIoCkW3sQ22jj9NKNrWW" name="PÃ¡gina-2">
    <mxGraphModel dx="1106" dy="553" grid="1" gridSize="10" guides="1" tooltips="1" connect="1" arrows="1" fold="1" page="1" pageScale="1" pageWidth="827" pageHeight="1169" math="0" shadow="0">
      <root>
        <mxCell id="0" />
        <mxCell id="1" parent="0" />
      </root>
    </mxGraphModel>
  </diagram>
  <diagram id="Lb0-CiHEEe863LhT6CGI" name="PÃ¡gina-3">
    <mxGraphModel grid="1" page="1" gridSize="10" guides="1" tooltips="1" connect="1" arrows="1" fold="1" pageScale="1" pageWidth="827" pageHeight="1169" math="0" shadow="0">
      <root>
        <mxCell id="0" />
        <mxCell id="1" parent="0" />
      </root>
    </mxGraphModel>
  </diagram>
</mxfile>
